<svg xmlns="http://www.w3.org/2000/svg" xmlns:xlink="http://www.w3.org/1999/xlink" width="512"
    zoomAndPan="magnify" viewBox="0 0 378 120.749998" height="162"
    preserveAspectRatio="xMidYMid meet" version="1.0">
    <defs>
        <g />
        <clipPath id="af16ff1cd7">
            <path
                d="M 0.390625 19.574219 L 377.253906 19.574219 L 377.253906 100.308594 L 0.390625 100.308594 Z M 0.390625 19.574219 "
                clip-rule="nonzero" />
        </clipPath>
        <clipPath id="20d0b57670">
            <path
                d="M 377.148438 59.941406 L 353.660156 100.308594 L 23.875 100.308594 L 0.390625 59.941406 L 23.875 19.574219 L 353.660156 19.574219 Z M 377.148438 59.941406 "
                clip-rule="nonzero" />
        </clipPath>
        <clipPath id="00a75c1981">
            <path
                d="M 8.820312 28.582031 L 82.058594 28.582031 L 82.058594 91.453125 L 8.820312 91.453125 Z M 8.820312 28.582031 "
                clip-rule="nonzero" />
        </clipPath>
        <clipPath id="78d89cb338">
            <path
                d="M 82.058594 60.019531 L 63.75 91.453125 L 27.128906 91.453125 L 8.820312 60.019531 L 27.128906 28.582031 L 63.75 28.582031 Z M 82.058594 60.019531 "
                clip-rule="nonzero" />
        </clipPath>
        <clipPath id="3cadb446a7">
            <path
                d="M 11.109375 30.546875 L 79.769531 30.546875 L 79.769531 89.488281 L 11.109375 89.488281 Z M 11.109375 30.546875 "
                clip-rule="nonzero" />
        </clipPath>
        <clipPath id="3db6fc28a0">
            <path
                d="M 79.769531 60.019531 L 62.605469 89.488281 L 28.273438 89.488281 L 11.109375 60.019531 L 28.273438 30.546875 L 62.605469 30.546875 Z M 79.769531 60.019531 "
                clip-rule="nonzero" />
        </clipPath>
        <clipPath id="023ce1b610">
            <path
                d="M 21.121094 39.144531 L 69.757812 39.144531 L 69.757812 80.867188 L 21.121094 80.867188 Z M 21.121094 39.144531 "
                clip-rule="nonzero" />
        </clipPath>
        <clipPath id="ff3870b9d2">
            <path
                d="M 69.757812 60.019531 L 57.597656 80.890625 L 33.28125 80.890625 L 21.121094 60.019531 L 33.28125 39.144531 L 57.597656 39.144531 Z M 69.757812 60.019531 "
                clip-rule="nonzero" />
        </clipPath>
        <clipPath id="97765792ca">
            <path
                d="M 31.136719 47.738281 L 59.746094 47.738281 L 59.746094 72.296875 L 31.136719 72.296875 Z M 31.136719 47.738281 "
                clip-rule="nonzero" />
        </clipPath>
        <clipPath id="6433e7f36e">
            <path
                d="M 59.746094 60.019531 L 52.59375 72.296875 L 38.289062 72.296875 L 31.136719 60.019531 L 38.289062 47.738281 L 52.59375 47.738281 Z M 59.746094 60.019531 "
                clip-rule="nonzero" />
        </clipPath>
    </defs>
    <g clip-path="url(#af16ff1cd7)">
        <g clip-path="url(#20d0b57670)">
            <path fill="#ffffff"
                d="M 0.390625 19.574219 L 377.253906 19.574219 L 377.253906 100.308594 L 0.390625 100.308594 Z M 0.390625 19.574219 "
                fill-opacity="1" fill-rule="nonzero" />
        </g>
    </g>
    <g clip-path="url(#00a75c1981)">
        <g clip-path="url(#78d89cb338)">
            <path fill="#333333"
                d="M 1.496094 22.296875 L 89.382812 22.296875 L 89.382812 97.738281 L 1.496094 97.738281 Z M 1.496094 22.296875 "
                fill-opacity="1" fill-rule="nonzero" />
        </g>
    </g>
    <g clip-path="url(#3cadb446a7)">
        <g clip-path="url(#3db6fc28a0)">
            <path stroke-linecap="butt"
                transform="matrix(0.143045, 0, 0, 0.142886, 11.109599, 30.547406)" fill="none"
                stroke-linejoin="miter"
                d="M 479.986801 206.263249 L 359.996536 412.502878 L 119.988698 412.502878 L -0.00156742 206.263249 L 119.988698 -0.00371814 L 359.996536 -0.00371814 Z M 479.986801 206.263249 "
                stroke="#00ab44" stroke-width="90" stroke-opacity="1" stroke-miterlimit="4" />
        </g>
    </g>
    <g clip-path="url(#023ce1b610)">
        <g clip-path="url(#ff3870b9d2)">
            <path stroke-linecap="butt"
                transform="matrix(0.143045, 0, 0, 0.142886, 21.122779, 39.142889)" fill="none"
                stroke-linejoin="miter"
                d="M 339.997049 146.107009 L 254.988015 292.175188 L 84.997254 292.175188 L -0.0117796 146.107009 L 84.997254 0.0114927 L 254.988015 0.0114927 Z M 339.997049 146.107009 "
                stroke="#00ab44" stroke-width="90" stroke-opacity="1" stroke-miterlimit="4" />
        </g>
    </g>
    <g clip-path="url(#97765792ca)">
        <g clip-path="url(#6433e7f36e)">
            <path stroke-linecap="butt"
                transform="matrix(0.143045, 0, 0, 0.142886, 31.135963, 47.738375)" fill="none"
                stroke-linejoin="miter"
                d="M 200.007263 85.95075 L 150.006768 171.874816 L 50.005778 171.874816 L 0.0052825 85.95075 L 50.005778 -0.000654715 L 150.006768 -0.000654715 Z M 200.007263 85.95075 "
                stroke="#00ab44" stroke-width="90" stroke-opacity="1" stroke-miterlimit="4" />
        </g>
    </g>
    <g fill="#00ab44" fill-opacity="1">
        <g transform="translate(82.158898, 82.395776)">
            <g>
                <path
                    d="M 29.328125 -12.65625 C 29.328125 -14.53125 28.660156 -15.96875 27.328125 -16.96875 C 26.003906 -17.976562 23.617188 -19.039062 20.171875 -20.15625 C 16.734375 -21.269531 14.007812 -22.367188 12 -23.453125 C 6.519531 -26.421875 3.78125 -30.410156 3.78125 -35.421875 C 3.78125 -38.023438 4.515625 -40.347656 5.984375 -42.390625 C 7.453125 -44.429688 9.5625 -46.023438 12.3125 -47.171875 C 15.0625 -48.328125 18.148438 -48.90625 21.578125 -48.90625 C 25.015625 -48.90625 28.082031 -48.28125 30.78125 -47.03125 C 33.476562 -45.78125 35.570312 -44.019531 37.0625 -41.75 C 38.550781 -39.476562 39.296875 -36.894531 39.296875 -34 L 29.359375 -34 C 29.359375 -36.207031 28.660156 -37.921875 27.265625 -39.140625 C 25.878906 -40.367188 23.925781 -40.984375 21.40625 -40.984375 C 18.976562 -40.984375 17.085938 -40.46875 15.734375 -39.4375 C 14.390625 -38.414062 13.71875 -37.066406 13.71875 -35.390625 C 13.71875 -33.816406 14.503906 -32.5 16.078125 -31.4375 C 17.660156 -30.382812 19.988281 -29.394531 23.0625 -28.46875 C 28.71875 -26.757812 32.835938 -24.644531 35.421875 -22.125 C 38.003906 -19.613281 39.296875 -16.476562 39.296875 -12.71875 C 39.296875 -8.550781 37.71875 -5.28125 34.5625 -2.90625 C 31.40625 -0.53125 27.148438 0.65625 21.796875 0.65625 C 18.085938 0.65625 14.707031 -0.0195312 11.65625 -1.375 C 8.613281 -2.726562 6.289062 -4.585938 4.6875 -6.953125 C 3.082031 -9.316406 2.28125 -12.054688 2.28125 -15.171875 L 12.265625 -15.171875 C 12.265625 -9.847656 15.441406 -7.1875 21.796875 -7.1875 C 24.160156 -7.1875 26.003906 -7.664062 27.328125 -8.625 C 28.660156 -9.59375 29.328125 -10.9375 29.328125 -12.65625 Z M 29.328125 -12.65625 " />
            </g>
        </g>
    </g>
    <g fill="#00ab44" fill-opacity="1">
        <g transform="translate(123.870468, 82.395776)">
            <g>
                <path
                    d="M 12.484375 -35.84375 L 12.796875 -31.703125 C 15.359375 -34.910156 18.789062 -36.515625 23.09375 -36.515625 C 26.894531 -36.515625 29.722656 -35.398438 31.578125 -33.171875 C 33.429688 -30.941406 34.378906 -27.601562 34.421875 -23.15625 L 34.421875 0 L 24.84375 0 L 24.84375 -22.921875 C 24.84375 -24.960938 24.398438 -26.441406 23.515625 -27.359375 C 22.640625 -28.273438 21.175781 -28.734375 19.125 -28.734375 C 16.425781 -28.734375 14.40625 -27.582031 13.0625 -25.28125 L 13.0625 0 L 3.484375 0 L 3.484375 -35.84375 Z M 12.484375 -35.84375 " />
            </g>
        </g>
    </g>
    <g fill="#00ab44" fill-opacity="1">
        <g transform="translate(161.871398, 82.395776)">
            <g>
                <path
                    d="M 24.453125 0 C 24.015625 -0.863281 23.695312 -1.9375 23.5 -3.21875 C 21.175781 -0.632812 18.160156 0.65625 14.453125 0.65625 C 10.929688 0.65625 8.015625 -0.359375 5.703125 -2.390625 C 3.398438 -4.421875 2.25 -6.984375 2.25 -10.078125 C 2.25 -13.867188 3.65625 -16.78125 6.46875 -18.8125 C 9.289062 -20.851562 13.363281 -21.882812 18.6875 -21.90625 L 23.09375 -21.90625 L 23.09375 -23.953125 C 23.09375 -25.609375 22.664062 -26.929688 21.8125 -27.921875 C 20.96875 -28.921875 19.628906 -29.421875 17.796875 -29.421875 C 16.179688 -29.421875 14.914062 -29.035156 14 -28.265625 C 13.082031 -27.492188 12.625 -26.429688 12.625 -25.078125 L 3.046875 -25.078125 C 3.046875 -27.160156 3.6875 -29.082031 4.96875 -30.84375 C 6.25 -32.613281 8.0625 -34 10.40625 -35 C 12.75 -36.007812 15.378906 -36.515625 18.296875 -36.515625 C 22.710938 -36.515625 26.21875 -35.40625 28.8125 -33.1875 C 31.40625 -30.96875 32.703125 -27.847656 32.703125 -23.828125 L 32.703125 -8.28125 C 32.722656 -4.882812 33.195312 -2.3125 34.125 -0.5625 L 34.125 0 Z M 16.53125 -6.65625 C 17.945312 -6.65625 19.25 -6.96875 20.4375 -7.59375 C 21.632812 -8.226562 22.519531 -9.078125 23.09375 -10.140625 L 23.09375 -16.296875 L 19.515625 -16.296875 C 14.722656 -16.296875 12.171875 -14.640625 11.859375 -11.328125 L 11.828125 -10.765625 C 11.828125 -9.578125 12.242188 -8.59375 13.078125 -7.8125 C 13.921875 -7.039062 15.070312 -6.65625 16.53125 -6.65625 Z M 16.53125 -6.65625 " />
            </g>
        </g>
    </g>
    <g fill="#00ab44" fill-opacity="1">
        <g transform="translate(198.248923, 82.395776)">
            <g>
                <path
                    d="M 35.953125 -17.59375 C 35.953125 -12.070312 34.695312 -7.648438 32.1875 -4.328125 C 29.675781 -1.003906 26.289062 0.65625 22.03125 0.65625 C 18.40625 0.65625 15.476562 -0.597656 13.25 -3.109375 L 13.25 13.78125 L 3.671875 13.78125 L 3.671875 -35.84375 L 12.5625 -35.84375 L 12.890625 -32.34375 C 15.210938 -35.125 18.238281 -36.515625 21.96875 -36.515625 C 26.382812 -36.515625 29.816406 -34.878906 32.265625 -31.609375 C 34.722656 -28.335938 35.953125 -23.832031 35.953125 -18.09375 Z M 26.375 -18.296875 C 26.375 -21.628906 25.78125 -24.203125 24.59375 -26.015625 C 23.414062 -27.828125 21.703125 -28.734375 19.453125 -28.734375 C 16.441406 -28.734375 14.375 -27.582031 13.25 -25.28125 L 13.25 -10.609375 C 14.425781 -8.242188 16.515625 -7.0625 19.515625 -7.0625 C 24.085938 -7.0625 26.375 -10.804688 26.375 -18.296875 Z M 26.375 -18.296875 " />
            </g>
        </g>
    </g>
    <g fill="#333333" fill-opacity="1">
        <g transform="translate(236.45662, 82.395776)">
            <g>
                <path
                    d="M 43.9375 -23.03125 C 43.9375 -18.28125 43.097656 -14.113281 41.421875 -10.53125 C 39.742188 -6.957031 37.335938 -4.195312 34.203125 -2.25 C 31.078125 -0.3125 27.492188 0.65625 23.453125 0.65625 C 19.460938 0.65625 15.894531 -0.300781 12.75 -2.21875 C 9.613281 -4.144531 7.179688 -6.890625 5.453125 -10.453125 C 3.734375 -14.023438 2.863281 -18.128906 2.84375 -22.765625 L 2.84375 -25.15625 C 2.84375 -29.894531 3.695312 -34.070312 5.40625 -37.6875 C 7.125 -41.300781 9.546875 -44.070312 12.671875 -46 C 15.796875 -47.9375 19.367188 -48.90625 23.390625 -48.90625 C 27.410156 -48.90625 30.984375 -47.9375 34.109375 -46 C 37.234375 -44.070312 39.648438 -41.300781 41.359375 -37.6875 C 43.078125 -34.070312 43.9375 -29.90625 43.9375 -25.1875 Z M 33.859375 -25.21875 C 33.859375 -30.269531 32.953125 -34.109375 31.140625 -36.734375 C 29.328125 -39.367188 26.742188 -40.6875 23.390625 -40.6875 C 20.054688 -40.6875 17.484375 -39.390625 15.671875 -36.796875 C 13.859375 -34.203125 12.941406 -30.394531 12.921875 -25.375 L 12.921875 -23.03125 C 12.921875 -18.101562 13.828125 -14.28125 15.640625 -11.5625 C 17.453125 -8.84375 20.054688 -7.484375 23.453125 -7.484375 C 26.796875 -7.484375 29.359375 -8.789062 31.140625 -11.40625 C 32.929688 -14.03125 33.835938 -17.847656 33.859375 -22.859375 Z M 33.859375 -25.21875 " />
            </g>
        </g>
    </g>
    <g fill="#333333" fill-opacity="1">
        <g transform="translate(283.30345, 82.395776)">
            <g>
                <path
                    d="M 35.953125 -17.59375 C 35.953125 -12.070312 34.695312 -7.648438 32.1875 -4.328125 C 29.675781 -1.003906 26.289062 0.65625 22.03125 0.65625 C 18.40625 0.65625 15.476562 -0.597656 13.25 -3.109375 L 13.25 13.78125 L 3.671875 13.78125 L 3.671875 -35.84375 L 12.5625 -35.84375 L 12.890625 -32.34375 C 15.210938 -35.125 18.238281 -36.515625 21.96875 -36.515625 C 26.382812 -36.515625 29.816406 -34.878906 32.265625 -31.609375 C 34.722656 -28.335938 35.953125 -23.832031 35.953125 -18.09375 Z M 26.375 -18.296875 C 26.375 -21.628906 25.78125 -24.203125 24.59375 -26.015625 C 23.414062 -27.828125 21.703125 -28.734375 19.453125 -28.734375 C 16.441406 -28.734375 14.375 -27.582031 13.25 -25.28125 L 13.25 -10.609375 C 14.425781 -8.242188 16.515625 -7.0625 19.515625 -7.0625 C 24.085938 -7.0625 26.375 -10.804688 26.375 -18.296875 Z M 26.375 -18.296875 " />
            </g>
        </g>
    </g>
    <g fill="#333333" fill-opacity="1">
        <g transform="translate(321.503164, 82.395776)">
            <g>
                <path
                    d="M 23.09375 -9.90625 C 23.09375 -11.070312 22.507812 -11.992188 21.34375 -12.671875 C 20.1875 -13.347656 18.328125 -13.953125 15.765625 -14.484375 C 7.242188 -16.265625 2.984375 -19.882812 2.984375 -25.34375 C 2.984375 -28.53125 4.300781 -31.1875 6.9375 -33.3125 C 9.582031 -35.445312 13.035156 -36.515625 17.296875 -36.515625 C 21.847656 -36.515625 25.488281 -35.441406 28.21875 -33.296875 C 30.945312 -31.160156 32.3125 -28.378906 32.3125 -24.953125 L 22.734375 -24.953125 C 22.734375 -26.316406 22.289062 -27.445312 21.40625 -28.34375 C 20.519531 -29.238281 19.140625 -29.6875 17.265625 -29.6875 C 15.648438 -29.6875 14.398438 -29.320312 13.515625 -28.59375 C 12.628906 -27.863281 12.1875 -26.9375 12.1875 -25.8125 C 12.1875 -24.75 12.6875 -23.890625 13.6875 -23.234375 C 14.695312 -22.585938 16.394531 -22.023438 18.78125 -21.546875 C 21.164062 -21.078125 23.175781 -20.546875 24.8125 -19.953125 C 29.875 -18.085938 32.40625 -14.875 32.40625 -10.3125 C 32.40625 -7.039062 31 -4.394531 28.1875 -2.375 C 25.382812 -0.351562 21.765625 0.65625 17.328125 0.65625 C 14.328125 0.65625 11.660156 0.125 9.328125 -0.9375 C 6.992188 -2.007812 5.164062 -3.476562 3.84375 -5.34375 C 2.519531 -7.21875 1.859375 -9.234375 1.859375 -11.390625 L 10.9375 -11.390625 C 11.019531 -9.691406 11.644531 -8.390625 12.8125 -7.484375 C 13.988281 -6.578125 15.5625 -6.125 17.53125 -6.125 C 19.363281 -6.125 20.75 -6.472656 21.6875 -7.171875 C 22.625 -7.867188 23.09375 -8.78125 23.09375 -9.90625 Z M 23.09375 -9.90625 " />
            </g>
        </g>
    </g>
</svg>